# xmcd
#
# Track frame offsets:
#  182
#  9607
#  22090
#  35707
#  51367
#  66385
#  79180
#  95352
#  106762
#  125090
#  143152
#  158755
#  175502
#  188465
#  200190
#
# Disc length: 2828 seconds
#
# Revision: 0
# Processed by: cddbd v1.5.1PL0 Copyright (c) Steve Scherf et al.
# Submitted via: Collectorz.com_Music_Collector 6.9
#
DISCID=ce0b0a0f
DTITLE=Claude Gray - Great Country Roads
DYEAR=1995
DGENRE=Country
TTITLE0=Country Roads
TTITLE1=He'll Have To Go
TTITLE2=Borrowed Angel
TTITLE3=Country Bumpkin
TTITLE4=Canadian Pacific
TTITLE5=I Never had The One I Wanted
TTITLE6=Four Walls
TTITLE7=If I Ever Need A Lady
TTITLE8=Whoever Finds This, I Love You
TTITLE9=Family Flower
TTITLE10=Big Diamonds
TTITLE11=Old Habits
TTITLE12=Sweet Caroline
TTITLE13=How Fast Them Trucks Go
TTITLE14=So Sad To Watch Good Loves Go By
EXTD=
EXTT0=
EXTT1=
EXTT2=
EXTT3=
EXTT4=
EXTT5=
EXTT6=
EXTT7=
EXTT8=
EXTT9=
EXTT10=
EXTT11=
EXTT12=
EXTT13=
EXTT14=
PLAYORDER=
